# xmcd
#
# Track frame offsets:
# 150
# 20316
# 37953
# 59826
# 77698
# 96556
# 119117
# 143196
# 160747
# 181378
# 197285
# 220331
# 239908
# 263840
# 288082
# 305743
# 324583
#
# Disc length: 4643 seconds
#
# Revision: 1
# Processed by: cddbd v1.4PL0 Copyright (c) Steve Scherf et al.
# Submitted via: CedeCatalogueitor 2.5 http://usuarios.lycos.es/kakasboy
#
DISCID=01122111
DTITLE=Michael Bolton - Gratest Hits 1985-1995
DYEAR=1995
DGENRE=
TTITLE0=Soul Provider
TTITLE1=(Sittin' On) The Dock Of The Bay
TTITLE2=How Am I Suposed To Live Without You
TTITLE3=How Can We Be Lovers
TTITLE4=To Love Sombody
TTITLE5=Gerogia On My Mind
TTITLE6=Time, Love And Tenderness
TTITLE7=When A Man Loves A Woman
TTITLE8=Missing You Now
TTITLE9=Steel Bars
TTITLE10=Said I Loved You... But I Lied
TTITLE11=Lean On Me
TTITLE12=Can I Touch You...There?
TTITLE13=I Promise You
TTITLE14=I Found Someone
TTITLE15=A Love So Beautiful
TTITLE16=This River
EXTD=
EXTT0=
EXTT1=
EXTT2=
EXTT3=
EXTT4=
EXTT5=
EXTT6=
EXTT7=
EXTT8=
EXTT9=
EXTT10=
EXTT11=
EXTT12=
EXTT13=
EXTT14=
EXTT15=
EXTT16=
PLAYORDER=
